<svg width="236" height="318" viewBox="0 0 236 318" fill="none" xmlns="http://www.w3.org/2000/svg">
<path d="M83.8619 0.0338865C101.387 -1.00179 103.596 21.9519 105.027 34.7126C109.347 26.1158 112.939 19.2791 121.807 14.5319C129.082 10.638 138.29 10.7587 142.119 19.1638C145.98 27.6304 141.87 37.2304 138.83 45.2937C146.013 41.5439 152.791 37.3223 161.129 37.9704C167 38.4268 172.471 40.4807 176.294 45.0993C179.27 48.6508 180.599 53.2953 179.951 57.8815C178.703 67.1534 170.414 73.1162 163.549 78.5007C204.308 83.826 198.697 126.917 149.578 121.663C156.199 127.917 162.539 134.695 166.011 143.32C169.97 153.165 168.102 167.677 156.436 171.155C148.07 173.65 140.326 169.497 133.203 165.527C141.439 184.408 142.314 201.966 142.195 221.96C153.947 202.766 169.695 189.522 191.606 182.923C254.232 164.074 238.467 195.475 215.077 233.306C197.541 261.665 165.31 261.746 135.757 267.487C134.715 274.799 125.922 310.606 122.465 315.488C118.469 317.448 107.323 317.173 101.895 317.616C103.478 310.336 109.223 297.25 109.477 290.634C108.251 289.722 107.932 290.17 105.864 290.419C97.6495 291.553 91.4925 291.299 83.4888 289.068C51.5655 281.415 36.9456 259.526 22.0992 232.588C18.8481 226.69 17.1363 215.522 25.1558 212.805C36.1947 209.068 57.8731 208.117 68.7232 211.854C91.5465 219.728 105.885 241.175 116.546 261.681C123.578 231.06 128.769 205.061 116.418 174.666C113.636 180.353 111.551 184.926 106.139 188.707C96.877 195.177 86.292 189.571 81.48 180.525C78.7689 175.432 77.8616 170.491 76.6626 164.933C69.4203 174.617 54.5683 190.062 42.3736 173.655C38.0209 167.801 40.991 155.628 43.0054 148.769C36.2277 152.496 29.0773 155.373 21.0953 153.532C11.6332 151.345 6.82616 141.44 9.4185 132.307C12.605 121.069 22.9201 114.356 32.5494 108.837C31.3397 108.745 30.1296 108.631 28.9253 108.485C19.9118 107.399 8.90553 104.089 3.24564 96.5661C-1.89582 89.7504 -0.956013 80.6552 6.25932 75.8054C17.3523 68.3526 33.322 72.3764 45.4195 74.5583C36.9728 66.1035 26.2418 54.29 26.5064 41.3991C26.5821 36.0094 28.8506 30.884 32.7984 27.2116C46.9265 14.1264 61.5137 30.4615 70.3277 40.6267C68.3943 27.3782 67.7409 4.66277 83.8619 0.0338865ZM44.312 230.276C54.7354 254.363 72.1043 267.595 98.0923 270.657C89.1218 255.805 79.2382 236.411 61.1568 231.89C55.8048 230.551 49.7991 230.438 44.312 230.276ZM209.885 198.86C192.9 202.862 178.394 205.93 167.453 220.528C163.597 225.675 153.616 237.038 151.844 242.946L152.331 243.708C173.847 239.598 187.294 238.485 200.413 218.665C202.66 215.267 210.242 202.548 210.21 199.087L209.885 198.86ZM99.8687 127.138C97.4926 127.387 95.4293 127.344 93.4312 128.549C89.9586 133.674 87.0474 156.329 88.7593 163.237C90.0555 168.486 91.3736 174.487 95.3863 178.494C111.712 178.126 104.475 135.904 100.527 127.473L99.8687 127.138ZM77.3755 122.85C66.8334 132.328 58.8617 142.267 54.4439 155.839C53.137 159.862 51.8035 163.469 53.7691 167.536L55.2427 168.314C66.2978 164.393 80.3611 134.484 79.6431 124.239C78.4822 122.84 79.2005 123.309 77.3755 122.85ZM119.149 116.425C117.604 118.055 115.724 119.924 114.315 121.625C119.834 136.563 134.968 156.88 151.489 159.613C167.57 148.898 129.767 119.341 119.149 116.425ZM66.9683 111.499C65.4724 110.127 63.9437 110.445 61.897 110.688C56.7286 112.627 10.2292 129.617 24.0328 140.673C26.0092 141.088 26.1605 141.008 28.1099 140.894C36.6809 138.842 66.7516 119.729 66.9683 111.499ZM109.979 94.114C107.171 86.3212 99.5724 84.3651 92.1089 84.8024C88.0154 85.9689 84.6073 87.5791 82.4146 91.5212C80.87 94.3079 80.5297 97.6027 81.4585 100.654C83.8241 108.609 91.7845 113.426 99.9341 112.449C104.152 111.023 107.29 109.122 109.358 104.915C111.005 101.545 111.232 97.6512 109.979 94.114ZM156.053 109.544C193.085 108.75 178.033 86.5418 148.033 91.4401C141.763 92.18 129.396 93.779 124.983 98.569C122.591 106.308 145.164 108.814 150.166 109.203C152.126 109.349 154.087 109.463 156.053 109.544ZM66.1197 94.7243C62.7652 88.2166 25.8578 83.3934 18.4156 83.8308C15.8666 84.5868 15.2722 84.6089 13.2417 86.1911C11.7514 89.6312 15.3157 92.1644 18.2212 93.2067C31.8093 98.0943 45.2519 98.5204 59.4449 96.7868C62.0856 96.5978 63.258 96.7164 65.564 95.4743L66.1197 94.7243ZM157.516 67.3151C168.02 61.33 173.328 48.3746 156.803 50.278C143.825 55.2375 132.008 64.3141 122.643 74.6169C121.061 76.3558 119.436 78.3059 119.473 80.7468C121.866 83.3498 125.981 81.9136 129.059 81.1521C139.607 77.1988 147.79 72.8616 157.516 67.3151ZM46.4068 35.4323C45.5534 35.0101 42.961 35.0017 41.8863 35.0524C28.4176 48.3052 62.2149 73.2831 71.5581 79.656C71.9144 79.548 72.2761 79.4397 72.6324 79.3317L77.5367 74.2605C73.4913 64.782 56.7274 40.5386 46.4068 35.4323ZM129.239 24.1032C120.684 28.7343 116.374 38.9412 112.907 47.5612C111.076 52.107 103.834 67.9417 106.064 72.3327L107.312 72.6403C113.199 66.3853 135.115 32.7203 130.724 24.9958L129.239 24.1032ZM85.0376 11.5778C80.2962 17.5022 81.0948 29.9889 81.9966 37.0817C83.0335 45.194 85.0374 64.832 90.5406 70.1022C96.7889 63.5722 93.8891 18.3601 85.0376 11.5778Z" fill="#EA3700"/>
</svg>
