<svg width="191" height="192" viewBox="0 0 191 192" fill="none" xmlns="http://www.w3.org/2000/svg">
<path d="M83.8616 0.0338976C101.387 -1.00196 103.596 21.9518 105.028 34.7126C109.348 26.1159 112.939 19.2791 121.807 14.5319C129.082 10.6381 138.29 10.7588 142.119 19.1638C145.981 27.6304 141.871 37.2304 138.83 45.2937C146.013 41.544 152.792 37.3223 161.13 37.9704C167 38.4268 172.472 40.4808 176.295 45.0993C179.271 48.6508 180.6 53.2963 179.951 57.8825C178.704 67.1542 170.413 73.1163 163.549 78.5007C204.308 83.8258 198.697 126.918 149.577 121.663C156.199 127.917 162.539 134.695 166.012 143.32C169.971 153.165 168.102 167.677 156.437 171.155C148.071 173.65 140.326 169.498 133.202 165.528L119.049 158.659L116.417 174.666C113.636 180.353 111.551 184.927 106.14 188.708C96.8777 195.178 86.2927 189.571 81.4807 180.525C78.7696 175.432 77.8613 170.491 76.6624 164.933C69.4201 174.617 54.569 190.063 42.3743 173.656C38.0213 167.802 40.9917 155.628 43.0061 148.769C36.2282 152.496 29.0772 155.375 21.095 153.533C11.633 151.346 6.82694 141.441 9.4192 132.308C12.6056 121.069 22.9206 114.356 32.5501 108.837C31.3403 108.745 30.1304 108.631 28.926 108.485C19.9123 107.4 8.90528 104.089 3.24537 96.5661C-1.89578 89.7506 -0.955832 80.6562 6.25905 75.8064C17.3521 68.3534 33.3226 72.3764 45.4202 74.5583C36.9736 66.1036 26.2417 54.2909 26.5061 41.4001C26.5817 36.0103 28.8503 30.8841 32.7981 27.2116C46.9263 14.1263 61.5135 30.4625 70.3274 40.6276C68.394 27.3793 67.7407 4.66297 83.8616 0.0338976ZM99.8684 127.14C97.4922 127.389 95.4291 127.345 93.4309 128.55C89.9584 133.675 87.0471 156.33 88.759 163.238C90.0552 168.487 91.3734 174.488 95.386 178.495C111.712 178.127 104.476 135.905 100.528 127.474L99.8684 127.14ZM77.3753 122.851C66.8332 132.329 58.8614 142.268 54.4436 155.84C53.1367 159.863 51.8031 163.47 53.7688 167.537L55.2424 168.315C66.2975 164.394 80.3606 134.486 79.6428 124.24C78.4818 122.841 79.2003 123.31 77.3753 122.851ZM119.149 116.425C117.604 118.056 115.724 119.925 114.315 121.626C119.834 136.564 134.967 156.881 151.488 159.614C167.57 148.899 129.767 119.343 119.149 116.425ZM66.968 111.5C65.472 110.128 63.9436 110.446 61.8967 110.689C56.7273 112.628 10.2285 129.619 24.0325 140.675C26.0091 141.09 26.161 141.009 28.1106 140.895C36.682 138.842 66.7509 119.73 66.968 111.5ZM109.979 94.115C107.17 86.3218 99.5714 84.366 92.1077 84.8034C88.014 85.97 84.606 87.5797 82.4133 91.5222C80.8688 94.3089 80.5284 97.6037 81.4573 100.655C83.8229 108.61 91.7843 113.427 99.9339 112.45C104.152 111.024 107.289 109.123 109.358 104.916C111.005 101.546 111.232 97.6522 109.979 94.115ZM156.052 109.545C193.084 108.751 178.033 86.543 148.032 91.4411C141.762 92.181 129.394 93.7796 124.982 98.57C122.59 106.309 145.164 108.815 150.165 109.204C152.126 109.35 154.086 109.464 156.052 109.545ZM66.1194 94.7253C62.7656 88.2175 25.8575 83.3943 18.4153 83.8317C15.8663 84.5878 15.2721 84.6097 13.2415 86.1921C11.7514 89.6321 15.3155 92.1654 18.221 93.2077C31.809 98.0953 45.2516 98.5214 59.4446 96.7878C62.0854 96.5988 63.2578 96.7174 65.5637 95.4753L66.1194 94.7253ZM157.515 67.3161C168.019 61.3311 173.328 48.3753 156.802 50.279C143.824 55.2385 132.008 64.3151 122.643 74.6179C121.061 76.3568 119.435 78.3068 119.473 80.7478C121.865 83.3507 125.981 81.9145 129.059 81.153C139.606 77.1998 147.788 72.8626 157.515 67.3161ZM46.4065 35.4333C45.5533 35.011 42.9609 35.0027 41.886 35.0534C28.4172 48.3062 62.2135 73.284 71.5569 79.6569C71.9133 79.5489 72.2757 79.4407 72.6321 79.3327L77.5354 74.2614C73.4901 64.7831 56.7272 40.54 46.4065 35.4333ZM129.239 24.1042C120.684 28.7353 116.374 38.9422 112.907 47.5622C111.075 52.1083 103.833 67.9431 106.064 72.3337L107.312 72.6413C113.199 66.3869 135.114 32.7216 130.724 24.9968L129.239 24.1042ZM85.0374 11.5788C80.296 17.5034 81.0945 29.99 81.9964 37.0827C83.0333 45.1952 85.0371 64.8332 90.5403 70.1032C96.7888 63.5739 93.8888 18.3614 85.0374 11.5788Z" fill="#EA3700"/>
</svg>
