<svg width="263" height="483" viewBox="0 0 263 483" fill="none" xmlns="http://www.w3.org/2000/svg">
<path d="M115.667 0.274391C118.751 -0.0729892 121.875 -0.344631 124.724 1.124C137.14 7.52343 143.653 31.2347 147.74 43.7031C158.803 31.6709 167.963 18.1051 183.561 11.2773C192.951 7.16549 204.02 8.49406 207.947 19.1162C213.387 33.8117 205.046 49.4632 199.508 62.9131C211.352 60.6637 250.75 49.0716 249.598 72.0322C248.967 84.4903 234.855 95.3815 226.48 103.512C236.357 109.466 259.928 113.618 262.215 126.79C265.431 145.316 239.682 150.015 226.686 152.739C233.68 161.299 251.433 178.133 247.381 190.813C242.244 206.904 215.193 198.817 203.59 195.192C206.233 205.817 207.265 216.883 206.749 227.738C205.66 246.409 192.567 251.654 177.381 241.582C169.408 236.291 165.419 231.716 159.423 224.379C158.58 231.992 158.132 238.945 156.441 246.615C154.137 257.077 148.135 267.928 135.518 264.082C128.628 261.99 124.627 254.039 121.417 248.043C118.086 275.765 131.884 296.149 146.857 317.479C150.383 307.906 170.343 270.153 185.127 286.96C186.858 288.927 189.202 297.834 190.148 300.746C195.347 316.791 199.91 332.814 195.456 349.673C191.466 367.621 183.493 377.458 167.929 387.323C167.419 393.336 166.571 399.608 165.854 405.621C167.86 404.28 169.97 403.087 172.166 402.066C189.626 393.972 206.136 390.693 224.519 397.52C231.478 400.106 236.832 404.165 239.905 411.02C241.705 415.033 242.909 423.557 240.604 427.301C232.046 441.202 211.231 448.545 197.445 453.383C179.308 459.356 160.843 463.776 142.448 457.126C137.243 464.664 133.311 472.34 128.404 480.016C125.056 481.105 110.851 484.481 108.501 481.775C109.372 478.594 111.001 475.694 112.451 472.719C117.151 463.06 122.42 453.624 127.091 443.959C129.533 438.903 130.181 433.055 132.972 428.068C135.214 424.073 138.218 420.897 140.861 417.188C144.289 412.362 145.493 407.696 147.298 402.158C120.161 402.118 100.367 390.545 81.903 370.344C74.4795 362.215 53.1146 328.675 64.6305 316.986C67.9496 313.616 81.2265 313.884 86.3971 314.578C102.522 316.751 120.092 323.613 131.116 336.144C135.421 340.976 137.588 345.086 141.423 349.907C136.831 338.357 131.052 327.316 124.185 316.952C120.797 311.856 114.789 304.151 112.296 299.17C102.786 280.138 101.307 262.941 102.087 242.459C95.2249 249.355 78.6643 262.373 70.4039 248.191C65.3709 239.553 70.4317 220.991 73.2291 211.452C64.6479 214.494 56.8004 217.552 47.7262 218.919C38.543 220.302 26.2237 218.115 25.7936 206.602C25.2547 191.902 37.1213 178.653 46.4078 168.479C34.3755 167.46 4.6068 167.391 0.58265 152.856C-4.59922 134.131 26.1371 125.076 39.1442 121.936C32.2884 116.516 24.1204 111.722 18.7721 104.777C13.6989 98.1856 10.2766 88.9995 18.9899 83.8174C29.761 77.4144 43.1691 80.4395 54.5192 83.1045C50.2485 74.3585 33.6473 39.3276 54.2037 34.9951C65.7487 32.5618 86.3333 48.1618 96.3766 55.332C97.0129 45.2264 99.0193 32.7054 101.628 22.8847C104.081 13.6488 107.062 5.20651 115.667 0.274391ZM119.317 15.917C114.416 28.1218 112.449 40.799 111.022 53.792C110.81 55.7467 110.483 60.5497 109.646 61.8965C99.3335 78.4774 87.1977 66.6097 76.0768 59.4219C70.3788 55.7429 64.4456 52.8765 59.2291 50.2666C61.4132 61.2319 65.1801 70.5886 69.8405 79.8652C80.2791 100.624 62.6692 103.805 47.0944 97.7949C43.8269 96.5332 35.0384 95.4562 31.278 95.1289C34.551 98.1045 37.3085 100.299 40.8395 102.888C48.0394 108.163 62.4968 114.091 63.2076 124.205C63.7522 131.934 53.3539 135.14 47.5241 136.555C36.7529 139.165 25.7175 142.321 16.1959 148.099C27.185 150.651 37.3605 151.698 48.5846 152.619C61.2529 153.659 65.0822 153.887 68.235 166.361C64.572 181.916 49.5305 182.787 42.6744 203.441C53.887 202.698 65.4549 198.29 75.9967 193.03C82.9673 189.552 92.6612 189.039 93.7389 199.936C94.2145 204.69 88.6938 214.339 87.6276 219.209C85.6443 225.491 85.1631 229.286 84.8707 235.672C95.55 226.735 101.839 215.984 111.767 206.631C118.635 200.164 130.265 203.044 131.945 212.693C133.109 219.345 133.396 226.088 134.617 232.703C135.442 237.335 136.738 241.869 138.48 246.237C140.263 241.806 140.458 239.966 141.65 235.22C144.149 225.297 141.587 208.07 151.745 202.486C152.742 201.941 156.52 201.319 157.667 201.119C174.267 206.245 171.138 220.817 190.657 229.779C190.863 223.955 191.138 218.527 190.771 212.422C190.141 201.963 184.013 189.712 192.674 180.916C194.744 178.812 199.232 177.834 201.869 178.362C213.236 180.64 219.479 184.774 231.781 184.866C228.554 179.717 224.844 174.883 220.706 170.431C216.206 165.509 210.904 161.057 207.493 155.692C205.16 152.031 209.138 140.203 212.52 139.41C225.607 136.343 234.28 135.889 246.931 130.142C234.681 123.223 223.996 119.845 211.104 114.463C204.661 111.77 203.846 103.276 207.939 98.0527C215.517 89.0093 226.175 84.2958 232.446 73.6123C218.287 74.1007 206.976 78.3244 193.23 79.5586C186.747 80.1408 182.987 72.7568 183.594 67.083C185.761 49.3797 195.265 42.5956 193.408 23.5156C182.837 29.1482 173.419 36.7246 165.652 45.8476C163.485 48.3596 160.085 51.9478 158.216 54.7578C151.974 64.1343 139.455 61.4117 134.507 51.7724C130.89 44.7263 125.496 20.4748 119.317 15.917Z" fill="#EA3700"/>
<path d="M130.426 67.4818C142.945 65.4192 166.437 71.9991 176.383 80.4974C187.217 89.7546 200.877 104.478 201.835 119.572C204.288 158.116 181.021 191.275 141.622 195.989C141.416 196.021 141.215 196.055 141.009 196.087C122.854 196.46 104.412 194.646 89.7431 182.934C62.583 161.25 64.6528 116.382 85.748 91.0374C97.0293 77.6967 113.045 69.2526 130.426 67.4818ZM178.969 151.929C204.879 118.338 168.094 79.4008 131.871 82.2796C117.351 85.5505 106.092 93.6733 98.1875 106.288C85.301 126.837 80.566 151.202 104.401 165.989C116.009 173.244 129.716 176.403 143.336 174.96C161.416 171.803 167.733 166.492 178.969 151.929Z" fill="#EA3700"/>
</svg>
