<svg width="238" height="213" viewBox="0 0 238 213" fill="none" xmlns="http://www.w3.org/2000/svg">
<path d="M105.164 0.0454681C120.574 -0.720583 144.117 8.23624 150.389 23.6597C155.55 36.3604 152.734 39.3 167.458 31.5298C169.783 30.3025 173.028 29.2811 175.57 28.5269C192.58 23.9965 217.27 34.5924 224.756 50.7554C227.341 56.2058 227.618 62.4681 225.524 68.1255C221.93 77.8378 213.986 81.9999 205.263 86.0748C215.061 93.3065 221.923 99.0005 228.001 110.253C241.934 136.048 239.084 166.141 231.443 193.388C229.362 199.888 227.944 208.165 221.379 211.705C218.351 213.338 214.566 213.305 213.072 209.847C210.385 203.622 215.32 195.97 217.916 190.448C219.373 187.406 220.673 184.291 221.817 181.118C230.896 155.727 227.519 111.176 197.969 100.594C199.433 106.655 200.587 109.376 201.593 116.093C201.622 117.365 201.612 118.637 201.566 119.908C201.134 129.949 196.283 139.06 188.85 146.111C175.627 158.513 158.568 161.43 141.822 154.615C137.077 152.685 126.619 141.051 123.965 141.172C121.742 141.274 116.324 153.931 112.81 156.862C95.3074 171.449 61.0538 177.027 44.0779 158.554C30.6341 144.528 31.8474 125.27 39.2566 108.482C41.8589 102.519 46.8002 96.7052 47.6619 90.2935C46.2527 86.3296 35.5472 84.4309 31.5906 83.524C11.9615 79.0243 -11.4528 54.2493 6.29568 35.1695C16.9834 23.6807 41.8361 23.2048 56.326 26.0562C61.6721 27.1082 67.8819 30.524 73.4471 30.9205C77.538 31.1012 78.2242 20.7378 79.4597 17.106C80.488 14.1127 82.0796 11.3433 84.1482 8.94781C89.5864 2.59038 97.1819 0.626549 105.164 0.0454681ZM118.092 16.6714C115.513 16.4014 112.015 16.2086 109.467 16.5298C99.6539 17.5605 91.8673 22.3471 93.2176 33.5425C94.2016 41.6981 104.803 50.5914 99.5486 58.8257C95.9864 64.4077 88.7487 62.0102 84.7635 58.4732C80.5783 54.7583 77.5842 50.4756 74.116 46.147C65.5885 37.0049 53.0759 35.2445 41.2537 35.9918C22.2577 37.1925 10.9393 54.1962 28.448 67.8609C34.5316 72.6089 44.3726 76.8839 52.4246 76.0054C58.1994 75.0653 72.0454 69.2937 74.2928 79.942C74.948 86.913 65.371 91.1842 61.5447 95.067C52.2531 104.495 50.4347 118.568 51.3894 131.085C53.6588 160.837 85.2994 163.564 102.728 144.052C106.13 140.244 108.09 134.209 109.183 129.263C110.766 120.967 109.812 103.039 122.923 105.218C130.263 107.314 132.387 116.662 135.253 122.717C138.438 129.584 143.517 136.15 150.771 138.98C174.643 148.292 196.841 114.542 175.442 98.0845C170.397 94.2045 160.154 89.2614 161.845 81.1949C162.604 78.0687 165.153 75.6304 167.762 74.0181C176.929 68.35 204.35 76.3403 208.284 62.9097C211.314 52.5654 198.453 42.6358 189.137 40.7105C176.544 38.1086 168.095 42.027 160.243 52.1646C157.644 55.6017 153.964 59.125 149.532 57.6597C142.02 55.6933 145.554 46.3457 145.056 40.8355C144.661 26.4444 131.16 18.04 118.092 16.6714Z" fill="#EA3700"/>
<path d="M118.256 63.6353C132.324 63.3428 133.491 78.7892 121.573 81.994C118.853 82.1387 116.703 82.1605 114.259 80.7745C112.06 79.5533 110.491 77.4474 109.95 74.9919C108.635 68.9591 112.408 64.5653 118.256 63.6353Z" fill="#EA3700"/>
</svg>
