<svg width="52" height="52" viewBox="0 0 52 52" fill="none" xmlns="http://www.w3.org/2000/svg">
<path d="M25.709 0C39.8428 0.000164228 51.3007 11.4617 51.3008 25.5996V25.7168C51.3007 39.8548 39.8428 51.3162 25.709 51.3164H25.5918C11.4579 51.3164 6.51675e-05 39.8549 0 25.7168V25.5996C0.000116205 11.4616 11.4579 2.96176e-05 25.5918 0H25.709ZM26.6914 11.7588V30.7891C26.6968 30.8753 26.6992 30.9616 26.6992 31.0479C26.6991 33.3506 24.8245 35.2253 22.5225 35.2256C20.2202 35.2256 18.3448 33.3526 18.3447 31.0479C18.3447 28.743 20.2201 26.8691 22.5225 26.8691C23.0129 26.8692 23.4835 26.954 23.9219 27.1104V22.335C23.4656 22.2613 22.9985 22.2237 22.5225 22.2236C17.659 22.2236 13.7021 26.1847 13.7021 31.0479C13.7023 35.9109 17.659 39.8701 22.5225 39.8701C27.3857 39.8699 31.3417 35.9107 31.3418 31.0479C31.3418 30.8483 31.3339 30.6502 31.3213 30.4561L31.3418 30.4863V20.6943C32.1164 21.3109 33.2992 22.1071 34.8877 22.6895C36.1044 23.1353 37.2043 23.3275 38.0508 23.4102V18.5693C37.2924 18.4381 36.2213 18.159 35.0801 17.5137C33.8616 16.8215 32.993 15.9551 32.4053 15.209C31.9039 14.5744 31.6164 13.7993 31.584 12.9922C31.566 12.5823 31.5502 12.1687 31.5322 11.7588H26.6914Z" fill="#FBF5E7"/>
</svg>
