<svg width="52" height="52" viewBox="0 0 52 52" fill="none" xmlns="http://www.w3.org/2000/svg">
<path d="M25.709 0C39.8427 0.000176315 51.3007 11.4617 51.3008 25.5996V25.7168C51.3007 39.8548 39.8428 51.3162 25.709 51.3164H25.5918C11.4579 51.3164 6.51675e-05 39.8549 0 25.7168V25.5996C0.000116205 11.4616 11.4579 2.37166e-05 25.5918 0H25.709ZM17.7139 10.4404C13.3286 10.4407 9.76074 14.0099 9.76074 18.3965V32.9229C9.76086 37.3093 13.3287 40.8777 17.7139 40.8779H33.5879C37.9732 40.8779 41.5409 37.3095 41.541 32.9229V18.3965C41.541 14.0098 37.9733 10.4404 33.5879 10.4404H17.7139ZM33.5879 13.2471C36.4258 13.2471 38.7354 15.5577 38.7354 18.3965V32.9229C38.7352 35.7615 36.4258 38.0713 33.5879 38.0713H17.7139C14.8762 38.0711 12.5665 35.7614 12.5664 32.9229V18.3965C12.5664 15.5578 14.8761 13.2473 17.7139 13.2471H33.5879ZM25.6514 18.2578C21.5716 18.2578 18.2541 21.5763 18.2539 25.6572C18.2539 29.7383 21.5715 33.0576 25.6514 33.0576C29.7294 33.0576 33.0488 29.7383 33.0488 25.6572C33.0486 21.5763 29.7311 18.2579 25.6514 18.2578ZM25.6514 21.0654C28.1837 21.0655 30.2431 23.1262 30.2432 25.6592C30.2432 28.1923 28.1837 30.2529 25.6514 30.2529C23.119 30.2529 21.0596 28.1923 21.0596 25.6592C21.0597 23.1261 23.119 21.0654 25.6514 21.0654ZM33.7334 15.4658C32.6338 15.466 31.7405 16.359 31.7402 17.459C31.7402 18.5591 32.6336 19.4529 33.7334 19.4531C34.8316 19.4531 35.7266 18.5593 35.7266 17.459C35.7263 16.3589 34.8332 15.4658 33.7334 15.4658Z" fill="#FBF5E7"/>
</svg>
