<svg width="52" height="52" viewBox="0 0 52 52" fill="none" xmlns="http://www.w3.org/2000/svg">
<path d="M25.9922 0C40.3473 0 51.9844 11.6406 51.9844 26C51.9843 40.3593 40.3473 52 25.9922 52C11.6371 52 4.53451e-05 40.3593 0 26C0 11.6407 11.6371 4.53719e-05 25.9922 0ZM25.8848 14.3936C22.7543 14.3972 19.6236 14.3987 16.4932 14.4023C15.1854 14.4023 13.9138 14.3018 12.6992 14.8682C11.6564 15.3542 10.8399 16.2791 10.3486 17.3076C9.66752 18.7381 9.52457 20.3584 9.44238 21.9404C9.29079 24.8216 9.30746 27.7105 9.48828 30.5898C9.62162 32.6906 9.95966 35.0124 11.583 36.3516C13.0222 37.5372 15.0534 37.5958 16.9199 37.5977C22.8449 37.6031 28.7724 37.6087 34.6992 37.6123C35.4588 37.6141 36.2512 37.5996 37.0254 37.5156C38.5487 37.3512 40.0015 36.9142 40.9805 35.7852C41.9683 34.647 42.2223 33.0632 42.3721 31.5635C42.7374 27.9242 42.7338 24.2498 42.3594 20.6123C42.1548 18.6374 41.7146 16.454 40.0947 15.3066C38.84 14.4169 37.1901 14.3839 35.6504 14.3857C32.3958 14.3857 29.1394 14.3917 25.8848 14.3936ZM31.291 25.998L22.458 31.1006V20.8975L31.291 25.998Z" fill="#FBF5E7"/>
</svg>
