<svg width="180" height="36" viewBox="0 0 180 36" fill="none" xmlns="http://www.w3.org/2000/svg">
<path d="M91.1365 0C96.105 2.17269e-07 100.135 4.02947 100.135 9C100.135 13.9692 98.5629 17.9978 93.5964 18C98.5626 18.0003 100.135 22.0297 100.135 26.998C100.135 31.9685 96.1069 35.9999 91.1384 36C86.17 36 82.1424 34.4254 82.1423 29.4551C82.1422 34.4253 78.1145 35.9999 73.1462 36C68.1778 36 64.1493 31.9705 64.1492 27C64.1492 22.0295 65.7236 18 70.6921 18C65.7237 18 64.1492 13.9705 64.1492 9C64.1492 4.02947 68.1777 0 73.1462 0C78.1132 0.000102002 82.1402 1.57254 82.1423 6.54102C82.1425 1.57273 86.1701 1.40692e-05 91.1365 0ZM82.1423 14.2422C81.3133 14.2422 80.6405 14.9142 80.6404 15.7432V20.2559C80.6404 21.085 81.3132 21.7578 82.1423 21.7578C82.9713 21.7576 83.6433 21.0848 83.6433 20.2559V15.7432C83.6432 14.9143 82.9712 14.2424 82.1423 14.2422Z" fill="#3949C9"/>
<path d="M111.872 10.7915C97.5249 -3.5598 140.563 -3.5598 126.216 10.7915C140.563 -3.5598 140.563 39.4953 126.216 25.142C140.563 39.4953 97.5249 39.4953 111.872 25.142C97.5249 39.4953 97.5249 -3.5598 111.872 10.7915ZM118.984 14.2426C118.155 14.2427 117.483 14.9145 117.483 15.7436V20.2563C117.483 21.0853 118.155 21.7572 118.984 21.7573C119.813 21.7573 120.485 21.0854 120.485 20.2563V15.7436C120.485 14.9145 119.813 14.2426 118.984 14.2426Z" fill="#3949C9"/>
<path d="M180 0V35.8796H162.093V22.8986L159.81 28.9218H158.46L156.073 22.8986V35.8796H138.218V0H156.073L158.46 6.90591H159.81L162.093 0H180Z" fill="#3949C9"/>
<path d="M39.0286 0H56.8832V22.5351H62.1773V35.8796H39.0286V0Z" fill="#3949C9"/>
<path d="M0 35.8796V0H18.9965C24.9827 0 29.3252 0.865402 32.0242 2.59621C34.7231 4.32701 36.0726 7.11361 36.0726 10.956C36.0726 12.306 35.8996 13.5522 35.5536 14.6945C35.2075 15.8369 34.8615 16.6503 34.5155 17.135L33.9965 17.8619C35.1729 18.4504 36.0034 19.887 36.4878 22.1716C36.6954 23.1063 36.7992 24.1794 36.7992 25.3909C36.7992 28.6448 35.7958 31.2064 33.7889 33.0757C31.8165 34.945 28.8408 35.8796 24.8615 35.8796H0ZM20.8131 17.9138V15.2138C20.8131 14.7638 20.6747 14.4176 20.3979 14.1753C20.1211 13.8984 19.775 13.7599 19.3598 13.7599H17.8546V17.9138H20.8131ZM22.2664 20.4581H17.8546V23.4178H22.2664C22.647 23.4178 22.9757 23.2793 23.2526 23.0024C23.564 22.6909 23.7197 22.3274 23.7197 21.912C23.7197 21.4966 23.5813 21.1504 23.3045 20.8735C23.0276 20.5966 22.6816 20.4581 22.2664 20.4581Z" fill="#3949C9"/>
</svg>
