<svg width="156" height="36" viewBox="0 0 156 36" fill="none" xmlns="http://www.w3.org/2000/svg">
<g clip-path="url(#clip0_192_2269)">
<path d="M100.665 0.720994C109.495 0.522378 116.16 5.95564 117.054 14.846C117.481 19.0948 116.513 24.3115 113.742 27.6692C108.178 34.4118 97.3536 35.6086 90.6416 29.8909C87.0053 26.8068 85.5206 22.9912 85.1045 18.346C84.7375 21.9234 84.1758 25.2836 81.833 28.1849C78.7071 32.0569 74.6789 33.9051 69.79 34.3997C60.3414 34.7027 53.4589 28.6366 52.8506 19.1448C52.5867 15.0273 53.4272 11.2736 55.9189 7.93291C58.4744 4.53728 62.2893 2.31408 66.5029 1.76299C74.0199 0.714886 81.3052 4.27601 83.9697 11.555C84.5784 13.2178 84.7551 14.6416 84.9981 16.3792C85.2275 13.8328 85.4265 12.0836 86.542 9.72978C89.3427 3.81324 94.3594 1.11377 100.665 0.720994ZM75.999 16.1233C75.3571 11.8082 72.3334 9.11178 67.8555 9.53642C62.4074 10.5835 61.0191 15.4338 61.9883 20.2913C62.7993 24.3559 65.8423 26.6063 69.9336 26.1634C75.1011 25.3594 76.6826 20.722 75.999 16.1233ZM102.152 25.2259C111.418 23.5945 110.084 7.66131 100.241 8.68486C99.1416 8.84932 98.2919 9.06587 97.3125 9.6292C93.9645 11.5573 93.5134 15.6165 94.0596 19.0774C94.6954 23.0992 98.0557 25.8137 102.152 25.2259Z" fill="#EA3700"/>
<path d="M152.316 -0.382576C153.15 -0.477078 154.711 -0.367848 154.84 0.737943C155.199 3.83686 155.102 7.06218 155.188 10.1905C155.296 14.5818 155.475 18.9731 155.728 23.3594C155.807 24.5744 156.229 30.0703 155.834 30.9011C155.536 31.1331 155.29 31.2607 154.922 31.3491C154.016 31.5676 148.503 31.651 147.897 31.2055C147.413 30.8496 147.324 30.3771 147.246 29.8174C147.076 28.5877 147.21 27.2806 147.19 26.0386C147.137 23.8111 147.099 21.5823 147.073 19.3523C147.049 17.4537 147.048 14.8948 146.759 13.0379L146.724 12.8157C145.786 15.1255 145.194 17.6169 144.253 20.2433C143.291 22.9274 142.195 29.1584 140.274 31.3614C139.885 31.8093 135.261 31.7971 134.452 31.6903C134.147 31.6326 133.715 31.3356 133.565 31.0484C131.461 27.0438 130.029 22.5789 128.398 18.3742C127.795 16.8204 127.167 14.8604 126.366 13.5435C126.283 15.3734 126.332 17.0155 126.381 18.8454C126.499 20.7637 126.481 22.6378 126.587 24.6591C126.694 26.6903 127.186 29.4308 126.741 31.4596C126.686 31.7112 126.028 32.1726 125.752 32.1763C123.866 32.2021 121.942 32.3309 120.056 32.2548C118.993 32.2082 118.469 31.7099 118.418 30.652C118.335 28.8945 118.373 27.1321 118.367 25.3722C118.349 23.0649 118.291 20.7576 118.193 18.4515C118.015 13.2907 117.866 7.99492 117.586 2.82679C117.561 2.36655 117.799 1.28409 118.2 0.983402C119.257 0.19057 121.105 0.763713 122.351 0.672893C124.502 0.558755 126.548 0.247026 128.686 0.339073C129.275 0.363619 129.546 0.723204 129.848 1.18589C130.809 2.96547 131.438 5.16355 132.226 7.09286C133.194 9.5499 134.209 12.002 135.257 14.4259C135.619 15.2617 136.258 17.8746 137.164 17.9606C138.319 16.9738 141.474 1.99591 143.698 0.19056C144.103 -0.137127 151.05 -0.254938 152.316 -0.382576Z" fill="#EA3700"/>
<path d="M12.0731 3.92906C15.6892 3.65907 21.5774 3.5307 24.5165 6.03062C26.8805 8.041 27.6064 11.9539 26.6112 14.8207C26.1252 16.2195 25.2215 17.0802 24.2499 18.1625C24.8555 18.8176 25.7189 19.2976 26.4012 19.889C29.5144 22.5818 29.3919 28.8077 26.8983 31.8255C24.7496 34.4259 21.491 34.9389 18.3729 35.2445C15.5428 35.5476 12.4763 35.3567 9.52917 35.4769C8.15099 35.5334 2.68728 36.1117 1.54675 35.4798C0.421413 34.8564 0.796551 31.0713 0.781127 29.7591C0.765787 28.4669 0.735288 26.7217 0.676635 25.2699L0.245971 13.1478C0.185329 11.5768 -0.378644 5.68182 0.438354 4.66441C1.43232 4.18103 10.2959 4.00023 12.0731 3.92906ZM18.87 22.7904C17.8311 21.9965 16.3764 21.9643 15.1171 22.0785C13.7684 22.1693 10.5123 22.1614 9.50378 22.5873C8.97924 23.3985 9.10131 27.0599 9.60242 27.7484C10.5816 28.1876 12.953 27.9396 14.1024 27.8929C15.7964 27.7837 18.2295 27.9746 19.4677 26.6664C20.5209 25.5532 20.0156 23.6397 18.87 22.7904ZM17.3309 11.3148C16.2925 10.624 12.6505 10.7032 11.3583 10.9056C10.6867 10.9767 9.25813 11.0062 8.84851 11.5013C8.71415 12.0523 8.83816 14.9664 9.02527 15.3109C9.6344 16.4324 15.0506 15.875 15.9921 15.7289C18.4935 15.2059 19.6241 12.8427 17.3309 11.3148Z" fill="#EA3700"/>
<path d="M34.2001 3.1754C36.5309 3.01831 37.906 2.94589 37.753 5.90367C37.5632 9.57696 37.7291 13.1656 37.9235 16.8327C38.0775 19.7353 37.8677 22.7483 38.3158 25.6214C38.5208 26.964 40.8634 26.3099 41.7926 26.397C45.302 26.5198 48.7401 26.1356 52.2448 26.035C53.5705 25.9982 53.856 26.8523 54.0638 28.0305C54.2066 29.7635 54.7605 32.1776 53.777 33.7031C53.3048 34.3069 49.7037 34.1805 48.8581 34.1916C46.6772 34.3928 31.6447 35.1317 30.6583 34.831C30.2962 34.7205 30.0142 34.3499 29.8618 34.0161C29.4727 33.1643 29.6227 28.3325 29.5779 27.0279C29.4362 22.9017 29.3725 18.7718 29.1993 14.6457C29.0836 11.8892 28.8412 9.12532 28.7912 6.36759C28.7813 5.81531 28.7478 4.41986 29.0319 3.97558C29.7784 2.80965 32.9775 3.27236 34.2001 3.1754Z" fill="#EA3700"/>
</g>
<defs>
<clipPath id="clip0_192_2269">
<rect width="156" height="36" fill="white"/>
</clipPath>
</defs>
</svg>
