<svg width="531" height="106" viewBox="0 0 531 106" fill="none" xmlns="http://www.w3.org/2000/svg">
<path d="M268.459 9.15527e-05C283.094 0.000205395 294.964 11.8646 294.964 26.5001C294.963 41.1322 290.333 52.9944 275.703 53.0001C290.333 53.0001 294.964 64.8655 294.964 79.4952C294.963 94.1307 283.099 106 268.464 106C253.828 106 241.964 101.364 241.964 86.7286C241.964 101.364 230.099 106 215.464 106C200.828 106 188.964 94.1357 188.964 79.5001C188.964 64.8647 193.599 53.0001 208.235 53.0001C193.599 53.0001 188.964 41.1357 188.964 26.5001C188.964 11.8645 200.828 9.15527e-05 215.464 9.15527e-05C230.096 0.000105946 241.958 4.63005 241.964 19.2608C241.964 4.631 253.829 9.09132e-05 268.459 9.15527e-05ZM241.964 41.9356C239.521 41.9356 237.542 43.9152 237.542 46.3575V59.6417C237.542 62.084 239.521 64.0636 241.964 64.0636C244.406 64.0635 246.385 62.084 246.385 59.6417V46.3575C246.385 43.9153 244.406 41.9357 241.964 41.9356Z" fill="#FBF5E7"/>
<path d="M329.538 31.7752C287.277 -10.4816 414.055 -10.4816 371.794 31.7752C414.055 -10.4816 414.055 116.294 371.794 74.0311C414.055 116.294 287.277 116.294 329.538 74.0311C287.277 116.294 287.277 -10.4816 329.538 31.7752ZM350.489 41.9354C348.047 41.9354 346.066 43.9159 346.066 46.3582V59.6424C346.067 62.0845 348.047 64.0643 350.489 64.0643C352.931 64.0642 354.911 62.0845 354.911 59.6424V46.3582C354.911 43.916 352.932 41.9355 350.489 41.9354Z" fill="#FBF5E7"/>
<path d="M530.221 9.15527e-05V105.647H477.474V67.4243L470.747 85.1594H466.772L459.739 67.4243V105.647H407.145V9.15527e-05H459.739L466.772 20.3344H470.747L477.474 9.15527e-05H530.221Z" fill="#FBF5E7"/>
<path d="M114.965 9.15527e-05H167.559V66.3541H183.154V105.647H114.965V9.15527e-05Z" fill="#FBF5E7"/>
<path d="M0 105.647V0H55.9575C73.5907 0 86.3825 2.54815 94.3327 7.64447C102.283 12.7408 106.258 20.9458 106.258 32.2596C106.258 36.2348 105.748 39.9041 104.729 43.2677C103.71 46.6312 102.691 49.0265 101.671 50.4535L100.143 52.5939C103.608 54.3267 106.054 58.5566 107.481 65.2837C108.093 68.0357 108.399 71.1955 108.399 74.7629C108.399 84.3439 105.443 91.8865 99.531 97.3905C93.7212 102.895 84.9555 105.647 73.234 105.647H0ZM61.3086 52.7468V44.7966C61.3086 43.4715 60.9009 42.4523 60.0855 41.7388C59.2701 40.9234 58.2508 40.5157 57.0277 40.5157H52.5939V52.7468H61.3086ZM65.5895 60.2384H52.5939V68.9531H65.5895C66.7107 68.9531 67.679 68.5454 68.4944 67.73C69.4118 66.8126 69.8704 65.7424 69.8704 64.5193C69.8704 63.2962 69.4627 62.2769 68.6473 61.4615C67.8319 60.6461 66.8126 60.2384 65.5895 60.2384Z" fill="#FBF5E7"/>
</svg>
