<svg width="275" height="64" viewBox="0 0 275 64" fill="none" xmlns="http://www.w3.org/2000/svg">
<g clip-path="url(#clip0_193_2291)">
<path d="M177.453 1.73177C193.019 1.38135 204.769 10.9588 206.344 26.6312C207.097 34.1212 205.393 43.3183 200.508 49.2376C190.698 61.1238 171.616 63.2332 159.784 53.1536C153.374 47.7168 150.758 40.9899 150.024 32.8011C149.377 39.1075 148.386 45.0314 144.257 50.1458C138.746 56.9716 131.645 60.23 123.027 61.1019C106.371 61.6363 94.2382 50.9426 93.1658 34.2103C92.7006 26.9519 94.1816 20.3356 98.574 14.4466C103.079 8.46028 109.804 4.54012 117.232 3.56868C130.483 1.72114 143.326 7.99894 148.023 20.8304C149.096 23.7618 149.407 26.2719 149.836 29.3353C150.24 24.8462 150.591 21.7631 152.557 17.6136C157.494 7.18347 166.337 2.42414 177.453 1.73177ZM133.973 28.8831C132.842 21.2765 127.511 16.5233 119.617 17.2718C110.012 19.1174 107.565 27.6677 109.273 36.2308C110.703 43.3962 116.068 47.3644 123.28 46.5833C132.39 45.1662 135.178 36.9897 133.973 28.8831ZM180.075 44.93C196.409 42.0543 194.057 13.9665 176.706 15.7708C174.767 16.0607 173.27 16.4429 171.544 17.4359C165.642 20.8347 164.846 27.9901 165.808 34.0911C166.929 41.1809 172.853 45.9663 180.075 44.93Z" fill="#EA3700"/>
<path d="M268.506 -0.213459C269.975 -0.380049 272.727 -0.187496 272.954 1.76182C273.588 7.22466 273.417 12.9103 273.568 18.4251C273.759 26.1661 274.075 33.9071 274.52 41.6395C274.659 43.7813 275.403 53.4695 274.706 54.9342C274.181 55.3431 273.748 55.5681 273.099 55.7239C271.502 56.109 261.784 56.2561 260.715 55.4707C259.863 54.8433 259.705 54.0104 259.568 53.0238C259.268 50.856 259.504 48.5518 259.469 46.3624C259.376 42.4356 259.309 38.5067 259.263 34.5756C259.22 31.2287 259.218 26.7178 258.71 23.4444L258.647 23.0528C256.994 27.1245 255.951 31.5164 254.292 36.1463C252.596 40.8779 250.663 51.862 247.278 55.7455C246.592 56.5352 238.44 56.5135 237.014 56.3253C236.477 56.2236 235.716 55.7001 235.45 55.1938C231.742 48.1343 229.217 40.2635 226.341 32.8513C225.279 30.1123 224.171 26.6572 222.761 24.3358C222.614 27.5616 222.7 30.4563 222.787 33.6821C222.994 37.0637 222.962 40.3673 223.15 43.9306C223.338 47.5112 224.206 52.3423 223.421 55.9186C223.323 56.3621 222.164 57.1756 221.677 57.1821C218.354 57.2275 214.961 57.4547 211.636 57.3205C209.763 57.2383 208.839 56.3599 208.75 54.495C208.603 51.3969 208.67 48.2901 208.659 45.1876C208.627 41.1202 208.525 37.0528 208.352 32.9876C208.038 23.8901 207.776 14.5546 207.283 5.44408C207.238 4.63276 207.657 2.72458 208.365 2.19452C210.228 0.796897 213.486 1.80725 215.682 1.64715C219.474 1.44594 223.081 0.896418 226.85 1.05868C227.888 1.10195 228.366 1.73584 228.899 2.55148C230.593 5.68855 231.7 9.56339 233.089 12.9644C234.796 17.2957 236.586 21.6184 238.433 25.8913C239.071 27.3647 240.199 31.9708 241.795 32.1222C243.831 30.3828 249.394 3.97939 253.314 0.796879C254.028 0.219224 266.273 0.0115447 268.506 -0.213459Z" fill="#EA3700"/>
<path d="M21.283 7.38707C27.6576 6.91113 38.0366 6.68426 43.2176 11.0912C47.3851 14.6351 48.6645 21.5326 46.9099 26.5863C46.0532 29.0522 44.4606 30.569 42.7478 32.4769C43.8154 33.6319 45.3369 34.4783 46.5398 35.5209C52.028 40.2676 51.8136 51.2428 47.4178 56.5629C43.6297 61.1472 37.8844 62.0525 32.3875 62.5912C27.3982 63.1255 21.9931 62.7874 16.7976 62.9994C14.3683 63.0989 4.73845 64.118 2.72732 63.0043C0.743555 61.9053 1.40486 55.2336 1.37771 52.9203C1.35067 50.6423 1.29557 47.5655 1.19217 45.0062L0.434353 23.6371C0.327478 20.8678 -0.667908 10.4767 0.772244 8.68297C2.52104 7.83062 18.1497 7.51255 21.283 7.38707ZM33.2664 40.6351C31.4351 39.2355 28.8702 39.1791 26.6502 39.3802C24.2727 39.5403 18.5324 39.5279 16.7547 40.2787C15.8302 41.7093 16.0442 48.1627 16.9275 49.3763C18.6533 50.1509 22.8348 49.7134 24.8611 49.6312C27.8474 49.4387 32.1364 49.7744 34.3191 47.4681C36.1758 45.5058 35.2858 42.1323 33.2664 40.6351ZM30.5525 20.4066C28.7219 19.1889 22.3034 19.3271 20.0252 19.6839C18.8411 19.8094 16.3205 19.8617 15.5994 20.7357C15.3625 21.7075 15.581 26.8458 15.9109 27.4515C16.9861 29.428 26.5351 28.4444 28.1931 28.1869C32.6029 27.2651 34.5949 23.1001 30.5525 20.4066Z" fill="#EA3700"/>
<path d="M60.2887 6.05848C64.3974 5.78155 66.8214 5.6539 66.5518 10.8679C66.2171 17.3433 66.5096 23.6694 66.8523 30.1339C67.1239 35.2506 66.7539 40.562 67.5438 45.6268C67.9053 47.9936 72.0348 46.8405 73.6728 46.9941C79.8593 47.2104 85.9202 46.5333 92.0982 46.3559C94.4353 46.291 94.9385 47.7967 95.3048 49.8737C95.5566 52.9286 96.533 57.1842 94.7991 59.8734C93.9668 60.9379 87.6187 60.715 86.1281 60.7345C82.2835 61.0893 55.7839 62.3917 54.0451 61.8617C53.4068 61.667 52.9097 61.0136 52.641 60.4251C51.9551 58.9236 52.2195 50.4059 52.1405 48.1061C51.8907 40.8324 51.7784 33.5523 51.4731 26.2786C51.2691 21.4193 50.8418 16.5471 50.7537 11.6858C50.7362 10.7122 50.6771 8.25225 51.178 7.46906C52.494 5.41374 58.1334 6.2294 60.2887 6.05848Z" fill="#EA3700"/>
</g>
<defs>
<clipPath id="clip0_193_2291">
<rect width="275" height="64" fill="white"/>
</clipPath>
</defs>
</svg>
