<svg width="244" height="49" viewBox="0 0 244 49" fill="none" xmlns="http://www.w3.org/2000/svg">
<path d="M123.239 3.05176e-05C129.957 3.08113e-05 135.407 5.44649 135.407 12.1651C135.407 18.8821 133.281 24.3275 126.565 24.3301C133.281 24.3301 135.407 29.7773 135.407 36.4932C135.407 43.2118 129.96 48.6611 123.242 48.6612C116.523 48.6612 111.077 46.5328 111.077 39.8145C111.076 46.5329 105.629 48.6612 98.9106 48.6612C92.1924 48.6609 86.7459 43.2144 86.7456 36.4961C86.7456 29.7776 88.8739 24.3303 95.5923 24.3301C88.8739 24.3299 86.7456 18.8836 86.7456 12.1651C86.7457 5.44665 92.1923 0.000290011 98.9106 3.05176e-05C105.628 3.05176e-05 111.074 2.12548 111.077 8.84183C111.077 2.12605 116.523 0.000110455 123.239 3.05176e-05ZM111.077 19.251C109.955 19.251 109.046 20.1601 109.046 21.2813V27.3799C109.047 28.5009 109.956 29.4092 111.077 29.4092C112.198 29.409 113.106 28.5008 113.106 27.3799V21.2813C113.106 20.1602 112.198 19.2512 111.077 19.251Z" fill="#FBF5E7"/>
<path d="M151.278 14.5863C131.879 -4.81199 190.076 -4.81197 170.677 14.5863C190.077 -4.81159 190.077 53.3857 170.677 33.9848C190.077 53.386 131.878 53.386 151.278 33.9848C131.878 53.3858 131.878 -4.8117 151.278 14.5863ZM160.897 19.2514C159.775 19.2514 158.866 20.1605 158.866 21.2816V27.3793C158.866 28.5005 159.775 29.4096 160.897 29.4096C162.018 29.4095 162.927 28.5004 162.927 27.3793V21.2816C162.927 20.1605 162.018 19.2515 160.897 19.2514Z" fill="#FBF5E7"/>
<path d="M243.405 3.05176e-05V48.4984H219.191V30.952L216.102 39.0935H214.278L211.049 30.952V48.4984H186.905V3.05176e-05H211.049L214.278 9.33474H216.102L219.191 3.05176e-05H243.405Z" fill="#FBF5E7"/>
<path d="M52.7764 3.05176e-05H76.9203V30.4607H84.0792V48.4984H52.7764V3.05176e-05Z" fill="#FBF5E7"/>
<path d="M0 48.4984V3.05176e-05H25.688C33.7828 3.05176e-05 39.655 1.16979 43.3046 3.50932C46.9543 5.84885 48.7791 9.61549 48.7791 14.8092C48.7791 16.6341 48.5452 18.3185 48.0773 19.8626C47.6094 21.4067 47.1415 22.5063 46.6736 23.1613L45.9717 24.144C47.5626 24.9394 48.6856 26.8812 49.3406 29.9694C49.6214 31.2327 49.7617 32.6832 49.7617 34.3209C49.7617 38.7192 48.4048 42.1817 45.691 44.7084C43.0239 47.2351 38.9999 48.4984 33.619 48.4984H0ZM28.1445 24.2141V20.5645C28.1445 19.9562 27.9573 19.4883 27.583 19.1608C27.2087 18.7864 26.7408 18.5993 26.1793 18.5993H24.1439V24.2141H28.1445ZM30.1097 27.6532H24.1439V31.6538H30.1097C30.6244 31.6538 31.0689 31.4667 31.4432 31.0923C31.8644 30.6712 32.0749 30.1799 32.0749 29.6184C32.0749 29.057 31.8878 28.5891 31.5134 28.2147C31.1391 27.8404 30.6712 27.6532 30.1097 27.6532Z" fill="#FBF5E7"/>
</svg>
